<?xml version="1.0" encoding="utf-8"?>
<!-- Generator: Adobe Illustrator 21.1.0, SVG Export Plug-In . SVG Version: 6.00 Build 0)  -->
<svg version="1.1" id="图层_1" xmlns="http://www.w3.org/2000/svg" xmlns:xlink="http://www.w3.org/1999/xlink" x="0px" y="0px"
	 viewBox="0 0 130 116" style="enable-background:new 0 0 160 143;" xml:space="preserve">
<style type="text/css">
	.st0{fill:none;stroke:#EEEEEE;stroke-width:2;stroke-linejoin:round;}
</style>
<g id="XMLID_1_" transform="translate(-15,-22)">
	<polygon class="st0" points="140,116 130,133 113.3,119.3 87.2,97.9 88.7,97 88.7,95.5 120,108 	"/>
	<polygon class="st0" points="73,46.5 78.6,82.8 71.3,87 71.3,95.5 40,108 	"/>
	<polygon class="st0" points="90,27 87,46.5 81.4,82.8 80,82 78.6,82.8 73,46.5 70,27 	"/>
	<polygon class="st0" points="113.3,119.3 46.7,119.3 72.8,97.9 80,102 87.2,97.9 	"/>
	<polygon class="st0" points="87,46.5 120,108 88.7,95.5 88.7,87 81.4,82.8 	"/>
	<polygon class="st0" points="130,133 30,133 46.7,119.3 46.7,119.3 113.3,119.3 	"/>
	<polygon class="st0" points="70,27 73,46.5 40,108 20,116 	"/>
	<polygon class="st0" points="90,27 140,116 120,108 87,46.5 	"/>
	<polygon class="st0" points="72.8,97.9 71.3,97 71.3,95.5 71.3,87 78.6,82.8 80,82 81.4,82.8 88.7,87 88.7,95.5 88.7,97 87.2,97.9 
		80,102 	"/>
	<polygon class="st0" points="72.8,97.9 46.7,119.3 46.7,119.3 30,133 20,116 40,108 71.3,95.5 71.3,97 	"/>
</g>
</svg>
